<svg width="512" height="512" viewBox="0 0 512 512" fill="none" xmlns="http://www.w3.org/2000/svg">
<rect width="512" height="512" fill="#060717"/>
<g clip-path="url(#clip0_1602_3)">
<path d="M307.473 206.11C318.24 206.11 326.968 197.382 326.968 186.616C326.968 175.849 318.24 167.121 307.473 167.121C296.707 167.121 287.979 175.849 287.979 186.616C287.979 197.382 296.707 206.11 307.473 206.11Z" fill="#F2F2F2"/>
<path d="M191.589 167.121C200.561 167.121 207.835 159.848 207.835 150.875C207.835 141.903 200.561 134.63 191.589 134.63C182.617 134.63 175.344 141.903 175.344 150.875C175.344 159.848 182.617 167.121 191.589 167.121Z" fill="#F2F2F2"/>
<path d="M138.52 320.912C147.493 320.912 154.766 313.638 154.766 304.666C154.766 295.694 147.493 288.421 138.52 288.421C129.548 288.421 122.275 295.694 122.275 304.666C122.275 313.638 129.548 320.912 138.52 320.912Z" fill="#F2F2F2"/>
<path d="M122.008 329.576C126.714 335.153 131.804 375.364 137.236 380.227L392.063 380.768C397.494 375.906 402.584 335.695 407.29 330.117L122.008 329.576Z" fill="#E6E6E6"/>
<path d="M201.443 282.342V337.88H240.351V282.342C240.353 281.522 239.819 280.798 239.035 280.555C238.856 280.496 238.667 280.467 238.478 280.469H203.322C202.287 280.467 201.445 281.305 201.443 282.341L201.443 282.342ZM216.628 301.425C216.649 299.132 218.525 297.289 220.819 297.31C223.083 297.331 224.914 299.161 224.934 301.425V307.87C224.923 310.163 223.055 312.014 220.761 312.003C218.483 311.992 216.638 310.148 216.628 307.87V301.425Z" fill="#3F3D56"/>
<path d="M140.236 198.667V300.072C140.238 302.762 142.419 304.943 145.109 304.945H295.38C298.071 304.943 300.252 302.762 300.254 300.072V198.667C300.247 195.979 298.068 193.803 295.38 193.799H145.109C142.421 193.803 140.242 195.979 140.236 198.667Z" fill="#3F3D56"/>
<path d="M143.761 199.929V298.821C143.764 300.258 144.928 301.423 146.366 301.425H294.129C295.567 301.423 296.732 300.258 296.734 298.821V199.929C296.734 198.49 295.569 197.322 294.129 197.319H146.366C144.926 197.322 143.761 198.49 143.761 199.929Z" fill="#6E4BE2"/>
<path d="M173.891 343.772C174.196 344.154 174.659 344.376 175.147 344.373H263.057C263.951 344.372 264.674 343.647 264.673 342.753C264.673 342.643 264.661 342.532 264.638 342.424L263.274 335.942C263.159 335.405 262.78 334.962 262.267 334.767C262.084 334.695 261.889 334.658 261.693 334.658H176.507C176.31 334.658 176.115 334.695 175.933 334.767C175.419 334.962 175.04 335.405 174.925 335.942L173.561 342.424C173.462 342.9 173.584 343.395 173.891 343.772Z" fill="#3F3D56"/>
<path d="M151.117 210.942H289.378C289.682 210.935 289.923 210.684 289.916 210.38C289.91 210.086 289.673 209.848 289.378 209.842H151.117C150.813 209.849 150.572 210.1 150.579 210.404C150.585 210.698 150.822 210.935 151.117 210.942Z" fill="#3F3D56"/>
<path d="M461.016 318.381C461.005 318.354 461 318.332 460.989 318.31C460.78 317.747 460.536 317.197 460.258 316.664C458.682 313.702 460.35 309.153 458.574 304.128C455.704 295.984 452.206 291.18 447.077 286.875C446.926 286.745 446.774 286.621 446.617 286.491L446.612 286.485C443.189 283.675 439.063 281.049 433.94 277.778C432.873 277.096 429.186 279.067 429.272 275.688C429.37 271.935 429.473 268.047 427.632 265.621L427.512 265.464L427.323 265.415C421.01 264.166 414.572 263.67 408.142 263.937H408.137C405.407 264.038 402.696 264.436 400.052 265.123C399.857 265.177 399.662 265.231 399.473 265.296C399.326 265.334 399.18 265.383 399.034 265.431L398.915 265.475L398.823 265.561C397.041 267.343 396.63 270.538 396.435 273.868V273.874C396.397 274.48 396.364 275.087 396.337 275.693C396.186 278.931 388.372 281.547 385.393 283.014C379.799 285.776 380.643 292.211 380.578 292.211C380.578 292.211 371.173 311.52 371.059 331.074C371.054 332.162 371.047 333.256 371.038 334.355C370.973 343.464 370.799 352.729 370.117 361.171C369.819 364.799 369.435 368.271 368.92 371.514C366.419 387.31 355.085 374.195 349.664 384.706C349.842 385.739 350.142 386.748 350.558 387.711C351.18 388.079 351.819 388.437 352.453 388.794C355.263 390.359 358.126 391.819 361.041 393.175C361.204 393.251 361.366 393.327 361.529 393.397C366.876 395.871 372.387 397.973 378.023 399.689C379.123 400.025 380.222 400.345 381.332 400.648C391.152 403.359 401.263 404.873 411.446 405.159C411.487 405.154 411.529 405.152 411.57 405.153C423.613 404.82 435.577 403.096 447.224 400.014C447.386 399.971 447.549 399.928 447.711 399.884C448.474 399.679 449.233 399.473 449.991 399.256C456.694 397.349 463.261 394.993 469.648 392.206C469.654 392.443 469.678 392.68 469.718 392.915C469.724 392.991 469.735 393.067 469.751 393.142C469.762 393.056 469.772 392.969 469.778 392.883C469.81 392.628 469.837 392.368 469.864 392.108C473.179 359.79 466.296 332.352 461.016 318.381Z" fill="#CCCCCC"/>
<path d="M413.079 261.13C430.446 261.13 444.525 247.051 444.525 229.684C444.525 212.317 430.446 198.238 413.079 198.238C395.712 198.238 381.633 212.317 381.633 229.684C381.633 247.051 395.712 261.13 413.079 261.13Z" fill="#FFB6B6"/>
<path d="M415.407 261.696C420.201 260.84 424.914 259.575 429.493 257.917C433.989 256.053 442.966 246.338 444.986 241.151C446.487 237.297 446.83 231.669 446.854 227.626C446.955 216.799 442.461 206.438 434.488 199.114C432.944 197.578 431.015 196.488 428.903 195.959C428.718 195.926 428.53 195.901 428.342 195.885C425.377 195.692 422.538 194.618 420.188 192.8C419.729 192.429 419.244 192.091 418.736 191.79C416.206 190.38 413.378 189.588 410.483 189.48C405.781 189.155 399.545 191.602 391.949 196.757C388.133 199.346 383.455 199.59 379.805 199.512C379.39 199.513 379.007 199.733 378.798 200.092C377.581 201.781 375.769 202.947 373.727 203.355C372.486 203.653 371.51 205.643 370.363 208.212C370.103 208.795 369.799 209.476 369.567 209.899L369.39 209.207L368.834 210.126C365.973 214.851 367.485 221 372.21 223.861C373.479 224.63 374.904 225.106 376.381 225.256C377.706 225.346 379.036 225.3 380.351 225.119C381.153 225.037 381.982 224.951 382.79 224.935C388.093 224.985 392.98 227.819 395.659 232.396C396.773 234.268 399.192 234.883 401.064 233.769C401.358 233.594 401.628 233.382 401.867 233.137C403.268 231.53 405.368 230.709 407.488 230.941C408.431 231.249 409.24 231.871 409.779 232.704C410.416 233.625 411.313 234.335 412.355 234.744C415.846 235.762 417.476 242.965 417.514 249.228C417.55 255.264 416.199 259.899 414.229 260.499C412.713 260.96 412.558 261.105 412.499 261.4L412.446 261.665L412.665 261.86C413.58 262.003 414.515 261.947 415.407 261.696Z" fill="#2F2E41"/>
<path d="M304.111 358.918C310.132 358.918 315.013 357.361 315.013 355.439C315.013 353.517 310.132 351.96 304.111 351.96C298.09 351.96 293.209 353.517 293.209 355.439C293.209 357.361 298.09 358.918 304.111 358.918Z" fill="#3F3D56"/>
<path d="M304.111 356.599C310.132 356.599 315.013 355.041 315.013 353.12C315.013 351.198 310.132 349.64 304.111 349.64C298.09 349.64 293.209 351.198 293.209 353.12C293.209 355.041 298.09 356.599 304.111 356.599Z" fill="#3F3D56"/>
<path d="M302.194 355.451L303.818 355.427L303.37 325.092C303.238 315.019 308.47 305.635 317.108 300.453L348.115 281.919L347.281 280.524L316.275 299.059C307.139 304.539 301.605 314.464 301.746 325.116L302.194 355.451Z" fill="#3F3D56"/>
<path d="M347.31 295.594C345.132 295.594 343.367 293.829 343.367 291.651V267.063C343.367 264.886 345.132 263.12 347.31 263.12C349.488 263.12 351.253 264.886 351.253 267.063V291.651C351.253 293.829 349.488 295.594 347.31 295.594Z" fill="#6E4BE2"/>
<path d="M295.742 314.242C297.108 319.239 302.267 322.183 307.265 320.817C307.798 320.671 308.317 320.479 308.816 320.242L332.2 344.003L335.818 327.061L313.058 307.094C310.517 302.547 304.77 300.92 300.223 303.461C296.418 305.588 294.565 310.044 295.742 314.242Z" fill="#FFB6B6"/>
<path d="M417.889 289.431L417.74 289.348L400.69 283.484C396.311 281.978 391.496 282.425 387.469 284.712C386.545 285.235 385.676 285.85 384.875 286.547L384.869 286.547C382.198 288.855 380.357 291.976 379.629 295.431L370.673 337.949L352.666 328.245L345.329 326.493L338.65 319.79L321.971 312.999L321.045 314.104L312.652 324.135L311.993 324.924L330.472 351.658L338.756 352.56L341.076 356.688L341.24 356.763L348.03 359.823L376.992 372.872L391.016 362.138L393.211 360.454C411.355 343.643 419.836 330.121 423.378 319.822C425.252 314.381 425.745 309.848 425.56 306.193C424.983 294.898 418.176 289.647 417.889 289.431Z" fill="#CCCCCC"/>
<path d="M433.918 299.792H425.795C402.318 299.792 383.286 318.824 383.286 342.301C375.708 351.672 376.172 363.438 383.286 377.186L360.003 367.479C356.688 366.106 352.886 367.68 351.512 370.995C350.143 374.3 351.703 378.091 355.002 379.475L383.286 391.266V393.462C383.286 400.348 388.868 405.93 395.753 405.93H463.959C470.845 405.93 476.427 400.348 476.427 393.462C481.483 374.911 484.648 356.92 476.427 342.301C476.427 318.824 457.395 299.792 433.918 299.792Z" fill="#3F3D56"/>
<path d="M239.242 264.052C240.439 264.052 241.409 263.083 241.409 261.886C241.409 260.69 240.439 259.72 239.242 259.72C238.046 259.72 237.076 260.69 237.076 261.886C237.076 263.083 238.046 264.052 239.242 264.052Z" fill="#F2F2F2"/>
<path d="M246.824 264.052C248.02 264.052 248.99 263.083 248.99 261.886C248.99 260.69 248.02 259.72 246.824 259.72C245.627 259.72 244.658 260.69 244.658 261.886C244.658 263.083 245.627 264.052 246.824 264.052Z" fill="#F2F2F2"/>
<path d="M254.405 264.052C255.601 264.052 256.571 263.083 256.571 261.886C256.571 260.69 255.601 259.72 254.405 259.72C253.209 259.72 252.239 260.69 252.239 261.886C252.239 263.083 253.209 264.052 254.405 264.052Z" fill="#F2F2F2"/>
<path d="M184.69 239.162L200.858 239.403C201.307 239.387 201.658 239.011 201.642 238.562C201.628 238.135 201.285 237.793 200.858 237.778L184.69 237.537C184.242 237.553 183.89 237.929 183.906 238.378C183.921 238.804 184.263 239.147 184.69 239.162Z" fill="white"/>
<path d="M204.17 256.163C206.083 257.64 209.158 256.348 209.692 254.067C210.314 251.408 207.993 248.907 205.358 248.964C202.428 249.028 200.357 251.493 200.039 254.267C199.791 256.824 200.834 259.338 202.82 260.968C204.933 262.817 207.828 263.493 210.541 262.772C211.542 262.477 211.116 260.908 210.109 261.205C206.543 262.125 202.884 260.075 201.806 256.554C201.296 254.638 201.777 252.245 203.563 251.149C205.168 250.163 207.441 250.521 208.053 252.495C208.416 253.535 207.868 254.672 206.828 255.036C206.207 255.253 205.519 255.15 204.989 254.76C204.602 254.537 204.106 254.667 203.878 255.052C203.663 255.441 203.791 255.93 204.17 256.163Z" fill="white"/>
<path d="M220.744 248.832C219.114 250.658 217.653 252.629 216.381 254.721L214.483 249.703C214.116 248.735 212.545 249.155 212.916 250.135C213.723 252.268 214.53 254.401 215.337 256.533C214.408 258.253 213.604 260.037 212.933 261.873C212.574 262.856 214.143 263.28 214.5 262.304C214.968 261.031 215.504 259.784 216.106 258.568C216.846 260.522 217.585 262.475 218.324 264.429C218.69 265.398 220.261 264.978 219.89 263.997C218.965 261.552 218.04 259.108 217.116 256.663C218.463 254.27 220.065 252.03 221.893 249.981C222.588 249.203 221.443 248.051 220.744 248.832Z" fill="white"/>
<path d="M191.897 238.368L193.032 262.718C193.081 263.759 194.706 263.765 194.657 262.718L193.521 238.368C193.473 237.327 191.848 237.321 191.897 238.368Z" fill="white"/>
<path d="M231.968 251.056H227.876C227.866 250.234 227.855 249.412 227.839 248.591C227.818 247.547 226.193 247.543 226.214 248.591C226.231 249.413 226.247 250.234 226.264 251.056H222.758C222.31 251.072 221.959 251.448 221.974 251.896C221.989 252.323 222.331 252.666 222.758 252.681H226.297C226.304 253.026 226.31 253.371 226.317 253.717C226.294 255.315 226.363 256.913 226.523 258.504C226.869 261.057 228.6 263.959 231.557 263.708C232.591 263.62 232.601 261.995 231.557 262.084C228.889 262.31 228.123 259.174 228.022 257.121C227.95 255.644 227.919 254.162 227.898 252.681H231.968C232.417 252.665 232.768 252.288 232.752 251.84C232.737 251.413 232.395 251.071 231.968 251.056Z" fill="#F2F2F2"/>
<path d="M72.6019 326.717C72.0755 326.719 71.5504 326.769 71.033 326.865L62.422 272.353L71.0486 219.874C72.2328 212.671 67.3536 205.872 60.1505 204.688C53.6502 203.619 47.3553 207.5 45.3905 213.788C42.1566 224.136 40.5563 234.925 40.6473 245.767L40.9482 281.556L63.9043 336.521C64.4794 341.326 68.8409 344.754 73.6459 344.179C78.4508 343.604 81.8797 339.243 81.3046 334.438C80.7772 330.032 77.0393 326.716 72.6019 326.717Z" fill="#FFB8B8"/>
<path d="M56.8315 201.204C45.358 201.223 36.0617 210.519 36.0427 221.993L40.2666 264.664L40.6456 268.487L40.8406 268.498L55.6727 269.235H55.6781L62.8748 269.592L64.1095 269.652L65.5229 264.664L77.6203 221.993C77.608 210.517 68.3078 201.216 56.8315 201.204Z" fill="#E6E6E6"/>
<path d="M57.4705 406L50.6474 385.065C50.6474 385.065 38.1384 372.345 54.1835 338.576C54.5355 337.829 54.9037 337.076 55.2882 336.307C55.9597 334.958 56.6781 333.576 57.4435 332.159C58.6023 330.101 59.7774 327.973 61.1041 325.774L62.3171 325.991L63.4651 326.191L67.3911 326.885H67.3965L124.25 336.903C124.25 336.903 123.205 341.57 122.642 346.579C122.193 350.69 122.046 354.848 123.108 356.608C125.404 360.54 122.301 371.164 122.301 371.164C122.301 371.164 122.474 372.193 122.767 374.012V374.018C123.054 375.789 123.454 378.301 123.909 381.345C123.931 381.55 123.958 381.756 123.99 381.962C124.711 386.89 125.572 393.112 126.341 399.8C126.579 401.83 126.806 403.904 127.023 406L57.4705 406Z" fill="#2F2E41"/>
<path d="M41.2654 212.242C42.6931 208.304 46.0286 205.366 50.1146 204.445C53.0948 203.598 56.1965 203.259 59.2895 203.443C68.3437 203.799 66.0607 183.515 75.0262 184.828C75.0262 184.828 83.4646 181.817 90.0671 187.335C96.0651 192.348 100.2 205.983 101.739 205.207C102.066 205.046 102.852 205.063 103.951 205.209C116.798 206.914 126.043 218.438 125.279 231.375L124.627 242.434C124.627 242.434 129.239 249.377 122.546 261.636L114.113 299.321C114.113 299.321 135.211 341.109 125.485 349.682C115.759 358.256 77.6236 344.888 77.6236 344.888C77.6236 344.888 56.2383 338.277 51.7281 335.411C42.201 329.359 54.3774 315.559 61.9058 316.209C62.3107 314.604 61.7775 312.907 60.5271 311.822C58.4464 310.494 60.7777 307.486 60.9532 307.21C60.7526 307.41 59.1733 309.065 57.9701 305.58C56.7669 302.096 60.4769 297.709 60.4769 297.709L49.9984 275.147L41.751 257.324L40.7482 255.268L42.4685 244.178L42.3075 243.845C38.6418 236.203 37.8305 227.501 40.0203 219.313C40.8146 216.301 41.3864 213.557 41.2654 212.242Z" fill="#E6E6E6"/>
<path d="M127.023 406H123.406C124.407 403.85 125.398 401.765 126.341 399.799C126.579 401.83 126.806 403.904 127.023 406Z" fill="#2F2E41"/>
<path d="M198.027 279.856C197.707 280.273 197.424 280.719 197.184 281.187L148.81 254.622L112.598 215.672C107.627 210.326 99.264 210.021 93.9178 214.992C89.0935 219.477 88.3083 226.83 92.0766 232.233C98.2789 241.125 105.83 248.996 114.458 255.562L142.94 277.235L200.454 292.735C204.605 295.222 209.987 293.873 212.474 289.721C214.961 285.57 213.611 280.189 209.46 277.702C205.653 275.421 200.743 276.347 198.027 279.856Z" fill="#FFB8B8"/>
<path d="M132.549 269.326L146.909 252.576L147.709 251.639L118.295 211.778C117.024 210.788 115.639 209.953 114.17 209.291L114.166 209.287C103.716 204.537 91.3934 209.158 86.6435 219.609C82.656 228.382 85.2216 238.745 92.8414 244.644L101.426 250.028L132.421 269.474L132.549 269.326Z" fill="#E6E6E6"/>
<path d="M106.776 166.601C99.444 180.008 82.6318 184.933 69.2248 177.601C55.8178 170.269 50.893 153.457 58.2249 140.05C65.5568 126.643 82.369 121.718 95.776 129.05C101.408 132.13 105.793 137.072 108.182 143.029C108.308 143.346 108.422 143.663 108.536 143.992C111.212 151.433 110.571 159.664 106.776 166.601Z" fill="#FFB6B6"/>
<path d="M110.753 143.992C109.562 140.661 110.082 142.396 108.878 139.078C109.664 142.016 108.422 143.663 108.536 143.992H75.5921V124.841C85.2437 121.016 94.6798 117.761 100.38 124.841C110.956 124.841 119.53 133.415 119.531 143.992L110.753 143.992Z" fill="#2F2E41"/>
<path d="M99.0749 197.227C99.0496 196.873 99.0116 196.505 98.9609 196.151C98.5183 193.549 97.8007 191.001 96.8204 188.551C95.8704 185.879 94.9078 183.193 93.9452 180.521C95.1848 185.372 94.8068 190.495 92.8686 195.112C87.3082 190.78 90.8168 180.875 83.5464 180.875C66.0673 180.875 48.0815 166.702 48.0815 149.21C48.0815 131.731 55.5797 118.66 73.0589 118.66C90.5507 118.66 104.737 126.665 105.079 144.144C83.5464 149.21 103.141 195.454 99.0749 197.227Z" fill="#2F2E41"/>
<path d="M50.2656 146.531C61.458 146.531 70.5313 137.458 70.5313 126.266C70.5313 115.073 61.458 106 50.2656 106C39.0732 106 30 115.073 30 126.266C30 137.458 39.0732 146.531 50.2656 146.531Z" fill="#2F2E41"/>
<path d="M157.106 206.139C158.457 206.139 159.553 205.019 159.553 203.637C159.553 202.256 158.457 201.136 157.106 201.136C155.755 201.136 154.66 202.256 154.66 203.637C154.66 205.019 155.755 206.139 157.106 206.139Z" fill="#3F3D56"/>
<path d="M165.558 206.139C166.909 206.139 168.005 205.019 168.005 203.637C168.005 202.256 166.909 201.136 165.558 201.136C164.207 201.136 163.111 202.256 163.111 203.637C163.111 205.019 164.207 206.139 165.558 206.139Z" fill="#3F3D56"/>
<path d="M174.01 206.139C175.361 206.139 176.457 205.019 176.457 203.637C176.457 202.256 175.361 201.136 174.01 201.136C172.659 201.136 171.563 202.256 171.563 203.637C171.563 205.019 172.659 206.139 174.01 206.139Z" fill="#3F3D56"/>
<path d="M183.647 205.614C183.572 205.614 183.497 205.585 183.441 205.527L181.79 203.84C181.68 203.727 181.68 203.548 181.79 203.435L183.441 201.748C183.553 201.634 183.736 201.632 183.85 201.743C183.964 201.855 183.966 202.038 183.854 202.152L182.401 203.637L183.854 205.123C183.966 205.237 183.964 205.42 183.85 205.532C183.793 205.587 183.72 205.614 183.647 205.614Z" fill="#3F3D56"/>
<path d="M186.421 205.614C186.348 205.614 186.275 205.587 186.219 205.532C186.105 205.42 186.103 205.237 186.215 205.123L187.667 203.637L186.215 202.152C186.103 202.038 186.105 201.855 186.219 201.743C186.333 201.631 186.517 201.633 186.628 201.748L188.279 203.435C188.389 203.547 188.389 203.727 188.279 203.84L186.628 205.527C186.572 205.585 186.497 205.614 186.421 205.614Z" fill="#3F3D56"/>
<path d="M278.183 201.426H275.113C274.763 201.426 274.48 201.709 274.48 202.059V205.132C274.48 205.482 274.763 205.766 275.113 205.766H278.183C278.533 205.766 278.819 205.482 278.819 205.132V202.059C278.819 201.709 278.533 201.426 278.183 201.426Z" fill="#3F3D56"/>
<path d="M270.661 201.426H267.591C267.241 201.426 266.957 201.709 266.957 202.059V205.132C266.957 205.482 267.241 205.766 267.591 205.766H270.661C271.011 205.766 271.297 205.482 271.297 205.132V202.059C271.297 201.709 271.011 201.426 270.661 201.426Z" fill="#3F3D56"/>
<path d="M285.271 201.57H282.201C281.851 201.57 281.568 201.854 281.568 202.204V205.277C281.568 205.627 281.851 205.91 282.201 205.91H285.271C285.621 205.91 285.907 205.627 285.907 205.277V202.204C285.907 201.854 285.621 201.57 285.271 201.57Z" fill="#3F3D56"/>
<path d="M234.271 202.739H207.236C206.807 202.739 206.463 203.086 206.463 203.512C206.463 203.937 206.807 204.284 207.236 204.284H234.271C234.697 204.284 235.044 203.937 235.044 203.512C235.044 203.087 234.697 202.739 234.271 202.739Z" fill="#3F3D56"/>
</g>
<defs>
<clipPath id="clip0_1602_3">
<rect width="451.475" height="300" fill="white" transform="translate(30 106)"/>
</clipPath>
</defs>
</svg>
